<svg width="60" height="60" viewBox="0 0 60 60" fill="none" xmlns="http://www.w3.org/2000/svg">
  <!-- Emoji circle -->
  <circle cx="30" cy="30" r="20" fill="#FBBF24"/>
  
  <!-- Starry eyes -->
  <path d="M22 25L24 21L26 25L30 27L26 29L24 33L22 29L18 27L22 25Z" fill="#FFFFFF"/>
  <path d="M38 25L40 21L42 25L46 27L42 29L40 33L38 29L34 27L38 25Z" fill="#FFFFFF"/>
  
  <!-- Big smile -->
  <path d="M20 34C20 34 24 42 30 42C36 42 40 34 40 34" stroke="#7C2D12" stroke-width="3" stroke-linecap="round"/>
  
  <!-- Enthusiasm lines/rays -->
  <line x1="12" y1="18" x2="16" y2="22" stroke="#FBBF24" stroke-width="2" stroke-linecap="round"/>
  <line x1="8" y1="30" x2="12" y2="30" stroke="#FBBF24" stroke-width="2" stroke-linecap="round"/>
  <line x1="12" y1="42" x2="16" y2="38" stroke="#FBBF24" stroke-width="2" stroke-linecap="round"/>
  <line x1="30" y1="52" x2="30" y2="48" stroke="#FBBF24" stroke-width="2" stroke-linecap="round"/>
  <line x1="48" y1="18" x2="44" y2="22" stroke="#FBBF24" stroke-width="2" stroke-linecap="round"/>
  <line x1="52" y1="30" x2="48" y2="30" stroke="#FBBF24" stroke-width="2" stroke-linecap="round"/>
  <line x1="48" y1="42" x2="44" y2="38" stroke="#FBBF24" stroke-width="2" stroke-linecap="round"/>
  <line x1="30" y1="8" x2="30" y2="12" stroke="#FBBF24" stroke-width="2" stroke-linecap="round"/>
</svg> 