<svg width="60" height="60" viewBox="0 0 60 60" fill="none" xmlns="http://www.w3.org/2000/svg">
  <!-- Body -->
  <path d="M15 30C15 22.268 21.268 16 29 16H33C40.732 16 47 22.268 47 30V42C47 46.418 43.418 50 39 50H23C18.582 50 15 46.418 15 42V30Z" fill="#3B82F6"/>
  
  <!-- Eyes -->
  <circle cx="25" cy="28" r="3" fill="white"/>
  <circle cx="39" cy="28" r="3" fill="white"/>
  <circle cx="25" cy="28" r="1.5" fill="black"/>
  <circle cx="39" cy="28" r="1.5" fill="black"/>
  
  <!-- Smile -->
  <path d="M28 36C28 36 30 39 32 39C34 39 36 36 36 36" stroke="white" stroke-width="2" stroke-linecap="round"/>
  
  <!-- Thumbs up hand -->
  <path d="M10 42V24C10 22.8954 10.8954 22 12 22V22C13.1046 22 14 22.8954 14 24V38" fill="#FBBF24"/>
  <path d="M10 42V24C10 22.8954 10.8954 22 12 22V22C13.1046 22 14 22.8954 14 24V38" stroke="#F59E0B" stroke-width="1.5" stroke-linecap="round"/>
  <path d="M14 28H18C19.1046 28 20 28.8954 20 30V38C20 40.2091 18.2091 42 16 42H12C10.8954 42 10 41.1046 10 40V40C10 38.8954 10.8954 38 12 38H14V28Z" fill="#FBBF24"/>
  <path d="M14 28H18C19.1046 28 20 28.8954 20 30V38C20 40.2091 18.2091 42 16 42H12C10.8954 42 10 41.1046 10 40V40C10 38.8954 10.8954 38 12 38H14V28Z" stroke="#F59E0B" stroke-width="1.5" stroke-linecap="round" stroke-linejoin="round"/>
  
  <!-- Sparkles -->
  <path d="M12 18L13 15L14 18L17 19L14 20L13 23L12 20L9 19L12 18Z" fill="#FBBF24"/>
  <circle cx="18" cy="14" r="1" fill="#FBBF24"/>
  <circle cx="7" cy="14" r="1" fill="#FBBF24"/>
</svg> 