<svg xmlns="http://www.w3.org/2000/svg" width="300" height="400" viewBox="0 0 300 400" fill="none">
  <!-- Phone outline -->
  <rect x="75" y="20" width="150" height="300" rx="20" fill="#F8FAFC" stroke="#334155" stroke-width="5"/>
  
  <!-- Screen -->
  <rect x="85" y="40" width="130" height="260" rx="5" fill="#E2E8F0"/>
  
  <!-- Notification 1 -->
  <rect x="95" y="60" width="110" height="40" rx="5" fill="white" stroke="#4F46E5" stroke-width="2"/>
  <circle cx="115" cy="80" r="10" fill="#4F46E5"/>
  <line x1="135" y1="75" x2="185" y2="75" stroke="#64748B" stroke-width="2"/>
  <line x1="135" y1="85" x2="175" y2="85" stroke="#64748B" stroke-width="2"/>
  
  <!-- Notification 2 -->
  <rect x="95" y="110" width="110" height="40" rx="5" fill="white" stroke="#4F46E5" stroke-width="2"/>
  <circle cx="115" cy="130" r="10" fill="#4F46E5"/>
  <line x1="135" y1="125" x2="185" y2="125" stroke="#64748B" stroke-width="2"/>
  <line x1="135" y1="135" x2="175" y2="135" stroke="#64748B" stroke-width="2"/>
  
  <!-- Notification 3 -->
  <rect x="95" y="160" width="110" height="40" rx="5" fill="white" stroke="#4F46E5" stroke-width="2"/>
  <circle cx="115" cy="180" r="10" fill="#4F46E5"/>
  <line x1="135" y1="175" x2="185" y2="175" stroke="#64748B" stroke-width="2"/>
  <line x1="135" y1="185" x2="175" y2="185" stroke="#64748B" stroke-width="2"/>
  
  <!-- Home button -->
  <circle cx="150" cy="320" r="15" fill="white" stroke="#334155" stroke-width="2"/>
</svg> 